<svg xmlns="http://www.w3.org/2000/svg" width="100" height="200" viewBox="0 0 100 200">
  <rect x="10" y="10" width="80" height="5" fill="#003366"/>
  <rect x="10" y="20" width="80" height="3" fill="#003366"/>
  <rect x="10" y="30" width="80" height="5" fill="#003366"/>
  <rect x="10" y="40" width="80" height="2" fill="#003366"/>
  <rect x="10" y="50" width="80" height="7" fill="#003366"/>
  <rect x="10" y="60" width="80" height="3" fill="#003366"/>
  <rect x="10" y="70" width="80" height="5" fill="#003366"/>
  <rect x="10" y="80" width="80" height="4" fill="#003366"/>
  <rect x="10" y="90" width="80" height="6" fill="#003366"/>
  <rect x="10" y="100" width="80" height="3" fill="#003366"/>
  <rect x="10" y="110" width="80" height="5" fill="#003366"/>
  <rect x="10" y="120" width="80" height="4" fill="#003366"/>
  <rect x="10" y="130" width="80" height="7" fill="#003366"/>
  <rect x="10" y="140" width="80" height="2" fill="#003366"/>
  <rect x="10" y="150" width="80" height="6" fill="#003366"/>
  <rect x="10" y="160" width="80" height="3" fill="#003366"/>
  <rect x="10" y="170" width="80" height="5" fill="#003366"/>
  <rect x="10" y="180" width="80" height="4" fill="#003366"/>
  <rect x="10" y="190" width="80" height="5" fill="#003366"/>
</svg>
