<svg width="768" height="768" viewBox="0 0 768 768" fill="none" xmlns="http://www.w3.org/2000/svg">
<circle cx="384" cy="384" r="384" fill="#B4DFB6"/>
<path d="M212 387.5L323.73 497.456C331.609 505.21 344.283 505.102 352.028 497.215L556.5 289" stroke="#4CAF50" stroke-width="80" stroke-linecap="round"/>
<path d="M768 384C768 596.077 596.077 768 384 768C171.923 768 0 596.077 0 384C0 171.923 171.923 0 384 0C596.077 0 768 171.923 768 384ZM86.6844 384C86.6844 548.203 219.797 681.316 384 681.316C548.203 681.316 681.316 548.203 681.316 384C681.316 219.797 548.203 86.6844 384 86.6844C219.797 86.6844 86.6844 219.797 86.6844 384Z" fill="#4CAF50"/>
</svg>
