<svg width="800" height="800" viewBox="0 0 800 800" fill="none" xmlns="http://www.w3.org/2000/svg">
<g clip-path="url(#clip0_1488_2)">
<path d="M-2.6798e-05 223.184C-2.6798e-05 211.353 4.50622 199.474 13.5921 190.41C31.6947 172.308 60.9896 172.308 79.0923 190.41L399.998 511.337L720.925 190.41C739.028 172.308 768.348 172.308 786.425 190.41C804.528 208.513 804.528 237.834 786.425 255.932L432.772 609.585C414.669 627.688 385.348 627.688 367.272 609.585L13.5964 255.932C4.53215 246.898 -2.6798e-05 235.041 -2.6798e-05 223.184Z" fill="#F5F5F5"/>
</g>
<defs>
<clipPath id="clip0_1488_2">
<rect width="800" height="800" fill="white" transform="matrix(0 1 -1 0 800 0)"/>
</clipPath>
</defs>
</svg>
