<svg width="42" height="37" viewBox="0 0 42 37" fill="none" xmlns="http://www.w3.org/2000/svg">
<path d="M37.5 0H4.16667C3.0616 0 2.00179 0.430207 1.22039 1.19598C0.438987 1.96175 0 3.00037 0 4.08333V32.6667C0 33.7496 0.438987 34.7882 1.22039 35.554C2.00179 36.3198 3.0616 36.75 4.16667 36.75H37.5C38.6051 36.75 39.6649 36.3198 40.4463 35.554C41.2277 34.7882 41.6667 33.7496 41.6667 32.6667V4.08333C41.6667 3.00037 41.2277 1.96175 40.4463 1.19598C39.6649 0.430207 38.6051 0 37.5 0ZM18.75 28.5833H6.25V24.5H18.75V28.5833ZM35.4167 20.4167H6.25V16.3333H35.4167V20.4167ZM35.4167 12.25H6.25V8.16667H35.4167V12.25Z" fill="#013366"/>
</svg>
