<svg width="212" height="38" viewBox="0 0 212 38" fill="none" xmlns="http://www.w3.org/2000/svg">
<g clip-path="url(#clip0_1447_43)">
<path d="M14.956 19.384C16.228 19.384 17.116 19.588 17.62 19.996C18.148 20.404 18.412 21.1 18.412 22.084C18.412 22.9 18.1 23.488 17.476 23.848C16.876 24.184 15.928 24.352 14.632 24.352H8.8V28.168L16.612 28.204C17.956 28.204 18.916 28.408 19.492 28.816C20.092 29.2 20.392 29.896 20.392 30.904C20.392 32.056 20.044 32.86 19.348 33.316C18.676 33.772 17.644 34 16.252 34H4.588C3.172 34 2.128 33.628 1.456 32.884C0.808 32.116 0.484 30.772 0.484 28.852V13.66C0.484 10.78 1.852 9.34 4.588 9.34H16.252C17.644 9.34 18.676 9.556 19.348 9.988C20.044 10.42 20.392 11.2 20.392 12.328C20.392 13.384 20.092 14.128 19.492 14.56C18.916 14.968 17.956 15.172 16.612 15.172H8.764V19.384H14.956ZM31.6195 21.544C32.4835 21.544 33.1675 21.64 33.6715 21.832C34.1755 22 34.5355 22.288 34.7515 22.696C34.9675 23.104 35.0755 23.656 35.0755 24.352C35.0755 25.24 34.7755 25.864 34.1755 26.224C33.5755 26.56 32.6155 26.728 31.2955 26.728H26.3635C24.4195 26.728 23.4475 25.888 23.4475 24.208C23.4475 22.432 24.5035 21.544 26.6155 21.544H31.6195ZM49.7123 28.132C50.9363 28.132 51.7283 27.82 52.0883 27.196C52.4723 26.572 52.6643 25.504 52.6643 23.992C52.6643 23.272 52.6643 21.616 52.6643 19.024C52.6883 16.408 52.7003 14.416 52.7003 13.048C52.7003 11.776 53.0003 10.852 53.6003 10.276C54.2243 9.676 55.2803 9.376 56.7683 9.376C58.0883 9.376 59.0723 9.712 59.7203 10.384C60.3683 11.032 60.8243 12.232 61.0883 13.984C61.3523 15.712 61.4843 18.352 61.4843 21.904C61.4843 23.416 61.3043 24.796 60.9443 26.044C60.6083 27.292 60.1283 28.36 59.5043 29.248C58.9043 30.112 58.2203 30.88 57.4523 31.552C56.6843 32.2 55.8563 32.716 54.9683 33.1C54.0803 33.484 53.2043 33.772 52.3403 33.964C51.4763 34.156 50.6243 34.252 49.7843 34.252C48.7523 34.252 47.7083 34.132 46.6523 33.892C45.6203 33.628 44.5643 33.184 43.4843 32.56C42.4283 31.936 41.4923 31.18 40.6763 30.292C39.8603 29.38 39.1883 28.204 38.6603 26.764C38.1563 25.3 37.9043 23.68 37.9043 21.904C37.9043 18.352 38.0483 15.712 38.3363 13.984C38.6243 12.232 39.1163 11.032 39.8123 10.384C40.5083 9.712 41.5763 9.376 43.0163 9.376C44.3603 9.376 45.3083 9.676 45.8603 10.276C46.4123 10.852 46.6883 11.776 46.6883 13.048C46.6883 14.44 46.6883 16.432 46.6883 19.024C46.7123 21.592 46.7243 23.236 46.7243 23.956C46.7243 24.58 46.7363 25.084 46.7603 25.468C46.8083 25.828 46.8803 26.2 46.9763 26.584C47.0963 26.968 47.2643 27.268 47.4803 27.484C47.6963 27.676 47.9843 27.832 48.3443 27.952C48.7043 28.072 49.1603 28.132 49.7123 28.132ZM74.5951 34.216C71.6671 34.216 69.2431 33.46 67.3231 31.948C65.4271 30.436 64.4791 28.372 64.4791 25.756C64.4791 22.924 65.4151 20.692 67.2871 19.06C69.1831 17.404 71.6191 16.576 74.5951 16.576C77.4031 16.576 79.4551 17.08 80.7511 18.088C82.0711 19.072 82.7311 20.428 82.7311 22.156C82.7311 22.492 82.6831 22.816 82.5871 23.128C82.5151 23.44 82.3831 23.752 82.1911 24.064C82.0231 24.352 81.7831 24.628 81.4711 24.892C81.1831 25.132 80.8471 25.36 80.4631 25.576C80.0791 25.768 79.6231 25.924 79.0951 26.044C78.5671 26.14 78.0031 26.188 77.4031 26.188L72.3271 26.224C72.5671 26.992 72.9991 27.604 73.6231 28.06C74.2471 28.492 75.0391 28.708 75.9991 28.708C77.0311 28.708 78.0871 28.576 79.1671 28.312C79.6231 28.192 80.1151 28 80.6431 27.736C81.1951 27.472 81.5911 27.34 81.8311 27.34C82.2391 27.34 82.5511 27.46 82.7671 27.7C83.0071 27.94 83.1271 28.24 83.1271 28.6C83.1271 29.032 82.9351 29.56 82.5511 30.184C82.1671 30.784 81.6271 31.396 80.9311 32.02C80.2591 32.62 79.3591 33.136 78.2311 33.568C77.1031 34 75.8911 34.216 74.5951 34.216ZM72.1471 23.92C73.8031 23.896 74.7031 23.884 74.8471 23.884C75.2071 23.884 75.4711 23.668 75.6391 23.236C75.7591 22.924 75.8191 22.492 75.8191 21.94C75.8191 20.428 75.3631 19.672 74.4511 19.672C74.1151 19.672 73.7791 19.852 73.4431 20.212C73.1311 20.572 72.8551 21.088 72.6151 21.76C72.3751 22.408 72.2191 23.128 72.1471 23.92ZM97.1572 24.316C97.1572 22.972 96.6292 22.3 95.5732 22.3C95.0692 22.3 94.6492 22.516 94.3132 22.948C94.0012 23.356 93.8212 23.908 93.7732 24.604V30.148C93.7732 31.612 93.4732 32.62 92.8732 33.172C92.2732 33.724 91.2172 34 89.7052 34C88.2892 34 87.3172 33.676 86.7892 33.028C86.2852 32.356 86.0332 31.264 86.0332 29.752V20.896C86.0332 19.672 86.3572 18.688 87.0052 17.944C87.6772 17.2 88.5652 16.828 89.6692 16.828C90.5812 16.828 91.3492 16.96 91.9732 17.224C92.5972 17.488 93.0652 17.944 93.3772 18.592C95.2492 17.368 97.5292 16.756 100.217 16.756C101.921 16.756 103.145 17.428 103.889 18.772C104.657 20.116 105.041 22.324 105.041 25.396C105.041 26.908 105.005 28.144 104.933 29.104C104.861 30.04 104.741 30.856 104.573 31.552C104.429 32.224 104.189 32.728 103.853 33.064C103.517 33.4 103.121 33.64 102.665 33.784C102.233 33.928 101.669 34 100.973 34C99.6292 34 98.6572 33.748 98.0572 33.244C97.4812 32.74 97.1932 31.996 97.1932 31.012L97.1572 24.316ZM110.089 26.296V22.048C109.489 22.024 109.009 21.928 108.649 21.76C108.289 21.568 108.025 21.328 107.857 21.04C107.713 20.752 107.641 20.392 107.641 19.96C107.641 18.592 108.469 17.848 110.125 17.728V14.38C110.125 13.468 110.785 12.652 112.105 11.932C113.425 11.188 114.733 10.816 116.029 10.816C116.821 10.816 117.337 11.044 117.577 11.5C117.817 11.956 117.937 12.64 117.937 13.552L117.973 17.692H118.945C120.265 17.692 121.165 17.872 121.645 18.232C122.149 18.568 122.401 19.192 122.401 20.104C122.401 20.488 122.329 20.812 122.185 21.076C122.041 21.34 121.801 21.544 121.465 21.688C121.153 21.832 120.769 21.94 120.313 22.012C119.857 22.06 119.293 22.084 118.621 22.084H117.973V26.044C117.973 26.428 117.985 26.752 118.009 27.016C118.057 27.256 118.117 27.448 118.189 27.592C118.261 27.736 118.357 27.832 118.477 27.88C118.621 27.928 118.789 27.952 118.981 27.952C119.269 27.952 119.509 27.856 119.701 27.664C119.893 27.448 120.037 27.22 120.133 26.98C120.253 26.716 120.397 26.488 120.565 26.296C120.757 26.08 120.973 25.972 121.213 25.972C121.765 25.972 122.185 26.104 122.473 26.368C122.785 26.632 122.941 26.956 122.941 27.34C122.941 27.988 122.809 28.684 122.545 29.428C122.305 30.172 121.945 30.892 121.465 31.588C120.985 32.284 120.313 32.86 119.449 33.316C118.609 33.772 117.661 34 116.605 34C114.229 34 112.549 33.4 111.565 32.2C110.581 31 110.089 29.032 110.089 26.296ZM137.249 25.468C137.249 24.22 137.093 23.128 136.781 22.192C136.469 21.232 136.013 20.752 135.413 20.752C135.005 20.752 134.645 20.992 134.333 21.472C134.021 21.952 133.793 22.54 133.649 23.236C133.505 23.932 133.433 24.676 133.433 25.468C133.433 26.692 133.601 27.772 133.937 28.708C134.273 29.62 134.753 30.076 135.377 30.076C136.001 30.076 136.469 29.62 136.781 28.708C137.093 27.796 137.249 26.716 137.249 25.468ZM135.377 34.252C133.505 34.252 131.813 33.916 130.301 33.244C128.813 32.572 127.613 31.564 126.701 30.22C125.813 28.876 125.369 27.304 125.369 25.504C125.369 22.768 126.305 20.596 128.177 18.988C130.049 17.38 132.449 16.576 135.377 16.576C138.305 16.576 140.693 17.38 142.541 18.988C144.389 20.596 145.313 22.768 145.313 25.504C145.313 28.216 144.365 30.352 142.469 31.912C140.597 33.472 138.233 34.252 135.377 34.252ZM156.792 16.576C159.024 16.576 160.884 17.032 162.372 17.944C163.86 18.856 164.604 19.852 164.604 20.932C164.604 21.244 164.472 21.532 164.208 21.796C163.944 22.06 163.608 22.192 163.2 22.192C162.84 22.192 162.444 22.072 162.012 21.832C161.58 21.568 161.172 21.292 160.788 21.004C160.404 20.716 159.9 20.452 159.276 20.212C158.652 19.972 157.992 19.852 157.296 19.852C156.36 19.852 155.892 20.14 155.892 20.716C155.892 21.124 156.132 21.448 156.612 21.688C157.092 21.928 157.788 22.18 158.7 22.444C159.636 22.708 160.344 22.96 160.824 23.2C162.624 23.896 163.86 24.652 164.532 25.468C165.204 26.26 165.54 27.316 165.54 28.636C165.54 29.284 165.36 29.932 165 30.58C164.64 31.204 164.1 31.804 163.38 32.38C162.66 32.932 161.676 33.388 160.428 33.748C159.204 34.084 157.8 34.252 156.216 34.252C153.12 34.252 150.804 33.544 149.268 32.128C148.524 31.432 148.152 30.712 148.152 29.968C148.152 29.512 148.296 29.152 148.584 28.888C148.896 28.624 149.328 28.492 149.88 28.492C150.432 28.492 151.272 28.768 152.4 29.32C153.528 29.848 154.572 30.112 155.532 30.112C156.852 30.112 157.512 29.788 157.512 29.14C157.512 28.804 157.164 28.54 156.468 28.348C155.772 28.132 154.86 27.88 153.732 27.592C152.604 27.304 151.704 26.944 151.032 26.512C149.976 26.056 149.232 25.492 148.8 24.82C148.392 24.124 148.188 23.284 148.188 22.3C148.188 20.62 148.98 19.252 150.564 18.196C152.172 17.116 154.248 16.576 156.792 16.576Z" fill="white"/>
<path d="M207.071 33.1429C207.071 33.1429 204.818 32.271 203.286 31.8468C193.594 29.1638 186.478 37.122 176.786 34.439C175.253 34.0148 173 33.1429 173 33.1429M207.071 22C207.071 22 204.818 21.1281 203.286 20.7039C193.594 18.0209 186.478 25.9791 176.786 23.2961C175.253 22.872 173 22 173 22M207.071 10.8571C207.071 10.8571 204.818 9.98518 203.286 9.56097C193.594 6.87801 186.478 14.8363 176.786 12.1533C175.253 11.7291 173 10.8571 173 10.8571" stroke="white" stroke-width="3.71429" stroke-linecap="round" stroke-linejoin="round"/>
</g>
<defs>
<clipPath id="clip0_1447_43">
<rect width="212" height="38" fill="white"/>
</clipPath>
</defs>
</svg>
