<svg width="84" height="81" viewBox="0 0 84 81" fill="none" xmlns="http://www.w3.org/2000/svg">
<path d="M38.9546 9.3798C39.9192 7.21572 40.4017 6.13368 41.0733 5.80047C41.6567 5.51097 42.3417 5.51097 42.925 5.80047C43.5967 6.13368 44.0792 7.21572 45.0438 9.3798L52.7271 26.617L52.7287 26.6206C53.013 27.258 53.1554 27.5771 53.3758 27.8216C53.5708 28.0383 53.8096 28.2117 54.0758 28.3304C54.3771 28.4645 54.7254 28.5013 55.4221 28.5748L74.19 30.5557C76.5463 30.8043 77.7242 30.9287 78.2488 31.4645C78.7042 31.9298 78.9158 32.5815 78.8208 33.2258C78.7117 33.9673 77.8322 34.7599 76.0733 36.3452L76.0717 36.3467L62.0521 48.9808L62.0502 48.9825C61.5315 49.4501 61.2715 49.6845 61.1071 49.9696C60.9613 50.2225 60.87 50.5029 60.8396 50.7929C60.805 51.1208 60.8775 51.4633 61.0229 52.1488L64.9388 70.61C65.4304 72.9279 65.6763 74.0867 65.3288 74.7508C65.0267 75.3283 64.4725 75.7308 63.8304 75.8396C63.0913 75.9646 62.065 75.3729 60.0125 74.1892L43.6646 64.76C43.0579 64.41 42.7546 64.2354 42.4321 64.1667C42.1467 64.1063 41.8517 64.1063 41.5663 64.1667C41.2438 64.2354 40.9404 64.41 40.3338 64.76L23.9859 74.1892C21.9335 75.3729 20.9073 75.9646 20.1681 75.8396C19.526 75.7308 18.9716 75.3283 18.6698 74.7508C18.3223 74.0867 18.5681 72.9279 19.0598 70.61L22.9754 52.1488C23.1208 51.4633 23.1934 51.1208 23.1589 50.7929C21.9462 50.7929 23.0373 50.2225 22.8914 49.9696C22.7266 49.6842 22.4665 49.4496 21.9462 48.9808L7.92693 36.3467L7.92504 36.345C6.16626 34.7599 5.28681 33.9672 5.17743 33.2258C5.08243 32.5815 5.29414 31.9298 5.74972 31.4645C6.27422 30.9287 7.45234 30.8043 9.80859 30.5557L28.5765 28.5748C29.2731 28.5013 29.6213 28.4645 29.9225 28.3304C30.1889 28.2117 30.4275 28.0383 30.6228 27.8216C30.8434 27.5766 30.986 27.2568 31.2712 26.617L38.9546 9.3798Z" fill="#003366" stroke="#003366" stroke-width="10" stroke-linecap="round" stroke-linejoin="round"/>
</svg>
