<svg width="34" height="24" viewBox="0 0 34 24" fill="none" xmlns="http://www.w3.org/2000/svg">
<path d="M31.3487 14.9619C31.8847 15.0692 32.3663 15.353 32.7125 15.7655C33.0588 16.178 33.2486 16.694 33.25 17.2267V20.8125C33.2493 21.4256 32.9988 22.0134 32.5536 22.4469C32.1083 22.8804 31.5047 23.1243 30.875 23.125H2.375C1.74533 23.1243 1.14166 22.8804 0.696417 22.4469C0.251174 22.0134 0.000720127 21.4256 0 20.8125V17.2267C0.00139756 16.694 0.191196 16.178 0.537466 15.7655C0.883736 15.353 1.36535 15.0692 1.90128 14.9619C2.7056 14.8015 3.42839 14.3756 3.94744 13.7562C4.4665 13.1368 4.74998 12.3619 4.74998 11.5625C4.74998 10.7631 4.4665 9.98818 3.94744 9.36879C3.42839 8.7494 2.7056 8.32352 1.90128 8.16312C1.36535 8.05579 0.883736 7.77201 0.537466 7.35952C0.191196 6.94703 0.00139756 6.43101 0 5.89826V2.3125C0.000720127 1.6994 0.251174 1.11162 0.696417 0.678089C1.14166 0.244563 1.74533 0.000701176 2.375 0H30.875C31.5047 0.000701176 32.1083 0.244563 32.5536 0.678089C32.9988 1.11162 33.2493 1.6994 33.25 2.3125V5.89826C33.2486 6.43101 33.0588 6.94703 32.7125 7.35952C32.3663 7.77201 31.8847 8.05579 31.3487 8.16312C30.5444 8.32352 29.8216 8.7494 29.3026 9.36879C28.7835 9.98818 28.5 10.7631 28.5 11.5625C28.5 12.3619 28.7835 13.1368 29.3026 13.7562C29.8216 14.3756 30.5444 14.8015 31.3487 14.9619ZM2.375 5.89713C3.71594 6.16373 4.92113 6.87316 5.78668 7.90541C6.65223 8.93766 7.51693 11.7924 7.51693 13.125C7.51693 14.4576 6.18076 15.3845 5.31521 16.4167C4.44966 17.449 6.09092 17.3584 4.74998 17.625L2.375 20.8125L7.51693 13.125L2.375 5.89713ZM30.875 5.89826L30.4836 5.51043L30.875 2.3125H13.0625H22.4103L30.8764 17.2282C29.5353 16.9619 29.3658 17.2203 28.5 16.1881C27.6342 15.156 22.4104 3.64522 22.4103 2.3125C22.4101 0.979781 29.5962 2.3125 30.875 2.3125C32.1538 2.3125 29.5339 6.16488 30.875 5.89826Z" fill="#003366"/>
</svg>
