<svg width="38" height="28" viewBox="0 0 38 28" fill="none" xmlns="http://www.w3.org/2000/svg">
<path d="M36.0715 24.2858C36.0715 24.2858 33.8182 23.4809 32.2858 23.0894C22.5938 20.6127 15.4777 27.9588 5.78572 25.4822C4.25328 25.0906 2 24.2858 2 24.2858M36.0715 14C36.0715 14 33.8182 13.1952 32.2858 12.8036C22.5938 10.327 15.4777 17.6731 5.78572 15.1964C4.25328 14.8049 2 14 2 14M36.0715 3.71429C36.0715 3.71429 33.8182 2.9094 32.2858 2.51782C22.5938 0.0412388 15.4777 7.38734 5.78572 4.91076C4.25328 4.51918 2 3.71429 2 3.71429" stroke="white" stroke-width="3.71429" stroke-linecap="round" stroke-linejoin="round"/>
</svg>
